<svg width="29" height="30" viewBox="0 0 29 30" fill="none" xmlns="http://www.w3.org/2000/svg">
<path d="M23.5386 6.49448C23.7086 6.32654 23.9677 6.28764 24.1795 6.39823C24.7267 6.68385 25.3635 7.29482 25.9227 7.98349C26.4918 8.68447 27.034 9.53179 27.3663 10.3482C28.458 13.0297 28.2262 15.6726 27.8442 18.0579C26.8295 24.3938 21.2314 29.3371 14.5686 29.3371C7.12699 29.3371 1.10137 23.258 1.10137 15.7679V15.7017C1.10137 15.6916 1.10164 15.6815 1.10219 15.6715C1.11021 15.5255 1.11881 15.3792 1.12851 15.232C1.12896 15.2251 1.12956 15.2181 1.13028 15.2112C1.1305 15.2047 1.13083 15.1982 1.13128 15.1917C1.1549 14.8514 1.1787 14.6219 1.21138 14.4069C1.22418 14.3045 1.238 14.2021 1.25284 14.0997C1.29869 13.7607 1.35252 13.4549 1.39527 13.2321C1.41674 13.1202 1.43551 13.0287 1.44923 12.9638C1.45609 12.9313 1.46169 12.9055 1.46573 12.887C1.46898 12.8722 1.47291 12.8546 1.47231 12.8573L1.47233 12.8572C1.80131 11.3696 2.41958 9.96212 3.29161 8.71632C3.66976 8.17268 4.09214 7.66163 4.55441 7.18848C4.96495 6.76538 5.4117 6.3795 5.88949 6.03531L5.90071 6.02722L5.90081 6.02737C5.94629 5.99631 6.07014 5.92199 6.17297 5.86409C6.22615 5.83413 6.28833 5.80026 6.34249 5.77441C6.36548 5.76344 6.40874 5.74331 6.45712 5.72788L6.45766 5.72771C6.47508 5.72215 6.53842 5.70194 6.61955 5.69934C6.65814 5.6981 6.75554 5.69818 6.86606 5.74777C7.0032 5.8093 7.13607 5.93895 7.1792 6.13097C7.19078 6.18256 7.19487 6.23555 7.19133 6.28831C7.17785 6.4893 7.16161 7.11467 7.21085 7.7637C7.23022 8.0191 7.25911 8.2693 7.29987 8.4936C8.0047 7.79622 8.89401 7.08641 9.97504 6.59026C10.168 6.5017 10.3947 6.53211 10.5575 6.66839C10.7203 6.80466 10.7901 7.02247 10.7369 7.228C10.5065 8.11766 10.5018 9.05045 10.7217 9.94071C10.7936 9.99473 10.8638 10.051 10.9322 10.1096L23.5386 6.49448ZM23.5386 6.49448C23.3685 6.66242 23.3264 6.92096 23.4343 7.1342C23.6932 7.64564 23.9138 8.26579 24.0968 8.89701M23.5386 6.49448L24.0968 8.89701M24.0968 8.89701C23.625 8.31596 23.1277 7.76339 22.642 7.2238C22.446 7.00594 22.2518 6.7902 22.062 6.57555C20.7702 5.11474 19.6491 3.67797 19.1827 1.84567C19.1654 1.74713 19.1228 1.65371 19.0578 1.57509C18.9722 1.47156 18.8533 1.40052 18.7211 1.37446C18.6464 1.35903 18.5695 1.35806 18.4945 1.37156C18.4266 1.3819 18.3598 1.4051 18.2978 1.44172C16.8068 2.32221 15.8093 3.25716 15.1445 4.24525C14.5481 5.13162 14.2364 6.03567 14.0615 6.93292C13.635 7.11549 13.1782 7.3814 12.7551 7.65566C12.2332 7.99396 11.7292 8.36704 11.3431 8.66879C11.1772 8.76856 11.0487 8.92039 10.9773 9.10071C10.8983 9.30061 10.8946 9.52249 10.9669 9.72479C11.0427 9.94145 11.2007 10.1207 11.4081 10.2224C11.6171 10.3249 11.8584 10.3397 12.0785 10.2633C12.0876 10.2601 12.0965 10.2567 12.1054 10.2531L12.133 10.2419C12.1427 10.2379 12.1524 10.2337 12.162 10.2291C12.8007 9.92502 13.4899 9.74358 14.1942 9.69396L14.1945 9.69394L14.2668 9.68881C14.3643 9.68295 14.4597 9.67917 14.5535 9.67822C15.1267 9.67357 15.6976 9.75261 16.2484 9.91289C16.2674 9.91862 16.2765 9.92163 16.2883 9.92551C16.3005 9.92952 16.3155 9.93447 16.3471 9.94432L16.3506 9.94539C16.4389 9.97224 16.528 10.0024 16.6188 10.0353C16.6911 10.0621 16.7483 10.0837 16.8027 10.1074L16.8027 10.1076L16.8154 10.1128C16.8736 10.1365 16.923 10.1566 16.9702 10.1775C17.0525 10.2147 17.1342 10.2534 17.2152 10.2936L24.0968 8.89701ZM6.82202 6.76451C6.82204 6.76451 6.82122 6.76489 6.81966 6.76556C6.82124 6.76483 6.82201 6.7645 6.82202 6.76451ZM17.3223 10.3477C17.3992 10.3885 17.4752 10.431 17.5502 10.4752L17.5535 10.4772C17.6012 10.5048 17.6486 10.5335 17.6957 10.5632L17.6976 10.5643C17.9807 10.7409 18.248 10.9401 18.4971 11.1595C18.029 11.0783 17.5329 11.0625 17.0378 11.1494C16.8043 11.1903 16.6233 11.3763 16.5887 11.6108C16.5541 11.8453 16.6736 12.0756 16.8853 12.1823C18.9389 13.217 19.7237 15.5346 19.2346 17.6068C18.7546 19.6403 17.0531 21.3802 14.1196 21.2415L14.1163 21.2414C13.6002 21.2201 13.0901 21.1213 12.6029 20.9481C12.4875 20.9041 12.3733 20.857 12.2604 20.8067C12.1891 20.7739 12.1312 20.7466 12.0771 20.7173L12.0772 20.7172L12.0685 20.7127C10.648 19.9766 9.51427 18.6175 9.32938 17.0115C9.34604 16.9714 9.37041 16.9181 9.4044 16.8551C9.49307 16.6907 9.64659 16.4616 9.89944 16.2288C10.3945 15.7731 11.3239 15.2545 13.0392 15.2545C13.2032 15.2545 13.348 15.2011 13.4453 15.1572C13.552 15.1091 13.6571 15.0464 13.7543 14.9808C13.9492 14.8492 14.1529 14.6782 14.336 14.504C14.5194 14.3294 14.696 14.1384 14.8327 13.9605C14.9007 13.8721 14.9661 13.7776 15.018 13.6831C15.0618 13.6034 15.1306 13.4635 15.1413 13.299C15.1426 13.2789 15.1428 13.2588 15.1419 13.2387C15.1328 13.0339 15.0153 12.9057 14.994 12.8825C14.9934 12.8819 14.9929 12.8814 14.9925 12.8809C14.9542 12.8387 14.9163 12.8091 14.8956 12.7937C14.8515 12.7607 14.8036 12.7319 14.7665 12.7106C14.688 12.6655 14.5837 12.612 14.4716 12.5556C14.3965 12.5179 14.3151 12.4776 14.2282 12.4345C14.0434 12.343 13.8338 12.2391 13.6072 12.122C12.9268 11.7705 12.2205 11.3622 11.8509 10.995L11.8506 10.9948C11.7982 10.9428 11.7487 10.8936 11.7016 10.8469C11.3374 10.4851 11.1249 10.2741 10.9326 10.1099L17.3223 10.3477Z" stroke="#B4B5B8" stroke-width="1.1" stroke-linejoin="round"/>
</svg>
